<svg viewBox="0 0 180 41" fill="currentColor" xmlns="http://www.w3.org/2000/svg">
  <path d="M7.59064 4.79409L10.6091 17.8447L20.1085 9.09989L27.4328 16.6018L35.0679 0L43.6795 1.90876L24.7251 40.439L18.91 22.1061L10.0765 36.1332L0 10.6535L7.59064 4.79409Z"/>
  <path d="M58.2798 20.0043V23.8139H46.4929V20.0043H58.2798ZM60.5842 12.794V8.81818H81.4734V12.794H73.381V35H68.6765V12.794H60.5842ZM89.9237 23.4943V35H85.2958V8.81818H89.8214V18.7003H90.0515C90.5117 17.5923 91.2234 16.7187 92.1864 16.0795C93.158 15.4318 94.3938 15.108 95.8938 15.108C97.2575 15.108 98.4464 15.3935 99.4606 15.9645C100.475 16.5355 101.259 17.3707 101.813 18.4702C102.375 19.5696 102.657 20.9119 102.657 22.4972V35H98.0288V23.2131C98.0288 21.892 97.6879 20.8651 97.006 20.1321C96.3327 19.3906 95.3867 19.0199 94.168 19.0199C93.3498 19.0199 92.6168 19.1989 91.9691 19.5568C91.3299 19.9062 90.8271 20.4134 90.4606 21.0781C90.1026 21.7429 89.9237 22.5483 89.9237 23.4943ZM116.067 35.3835C114.098 35.3835 112.398 34.9744 110.966 34.1562C109.543 33.3295 108.448 32.1619 107.681 30.6534C106.914 29.1364 106.53 27.3509 106.53 25.2969C106.53 23.277 106.914 21.5043 107.681 19.9787C108.456 18.4446 109.539 17.2514 110.928 16.3991C112.317 15.5384 113.949 15.108 115.824 15.108C117.034 15.108 118.176 15.304 119.25 15.696C120.333 16.0795 121.287 16.6761 122.114 17.4858C122.949 18.2955 123.605 19.3267 124.083 20.5795C124.56 21.8239 124.799 23.3068 124.799 25.0284V26.4474H108.703V23.3281H120.363C120.354 22.4418 120.162 21.6534 119.787 20.9631C119.412 20.2642 118.888 19.7145 118.215 19.3139C117.55 18.9134 116.775 18.7131 115.888 18.7131C114.942 18.7131 114.111 18.9432 113.395 19.4034C112.679 19.8551 112.121 20.4517 111.721 21.1932C111.328 21.9261 111.128 22.7315 111.12 23.6094V26.3324C111.12 27.4744 111.328 28.4545 111.746 29.2727C112.164 30.0824 112.748 30.7045 113.498 31.1392C114.248 31.5653 115.125 31.7784 116.131 31.7784C116.804 31.7784 117.414 31.6847 117.959 31.4972C118.505 31.3011 118.978 31.0156 119.378 30.6406C119.779 30.2656 120.081 29.8011 120.286 29.2472L124.607 29.733C124.334 30.875 123.814 31.8722 123.047 32.7244C122.289 33.5682 121.317 34.2244 120.132 34.6932C118.948 35.1534 117.593 35.3835 116.067 35.3835ZM128.714 35V15.3636H133.137V18.7003H133.367C133.776 17.5753 134.454 16.6974 135.4 16.0668C136.346 15.4276 137.475 15.108 138.788 15.108C140.117 15.108 141.238 15.4318 142.15 16.0795C143.07 16.7187 143.718 17.5923 144.093 18.7003H144.298C144.732 17.6094 145.465 16.7401 146.496 16.0923C147.536 15.4361 148.768 15.108 150.191 15.108C151.998 15.108 153.472 15.679 154.614 16.821C155.756 17.9631 156.327 19.6293 156.327 21.8196V35H151.687V22.5355C151.687 21.3168 151.363 20.4261 150.715 19.8636C150.067 19.2926 149.275 19.0071 148.337 19.0071C147.221 19.0071 146.347 19.3565 145.717 20.0554C145.094 20.7457 144.783 21.6449 144.783 22.7528V35H140.245V22.3438C140.245 21.3295 139.938 20.5199 139.325 19.9148C138.719 19.3097 137.927 19.0071 136.947 19.0071C136.282 19.0071 135.677 19.1776 135.131 19.5185C134.586 19.8509 134.151 20.3239 133.827 20.9375C133.504 21.5426 133.342 22.25 133.342 23.0597V35H128.714ZM169.716 35.3835C167.747 35.3835 166.047 34.9744 164.615 34.1562C163.191 33.3295 162.096 32.1619 161.329 30.6534C160.562 29.1364 160.179 27.3509 160.179 25.2969C160.179 23.277 160.562 21.5043 161.329 19.9787C162.105 18.4446 163.187 17.2514 164.576 16.3991C165.966 15.5384 167.598 15.108 169.473 15.108C170.683 15.108 171.825 15.304 172.899 15.696C173.981 16.0795 174.936 16.6761 175.762 17.4858C176.598 18.2955 177.254 19.3267 177.731 20.5795C178.208 21.8239 178.447 23.3068 178.447 25.0284V26.4474H162.352V23.3281H174.011C174.002 22.4418 173.811 21.6534 173.436 20.9631C173.061 20.2642 172.537 19.7145 171.863 19.3139C171.199 18.9134 170.423 18.7131 169.537 18.7131C168.591 18.7131 167.76 18.9432 167.044 19.4034C166.328 19.8551 165.77 20.4517 165.369 21.1932C164.977 21.9261 164.777 22.7315 164.768 23.6094V26.3324C164.768 27.4744 164.977 28.4545 165.395 29.2727C165.812 30.0824 166.396 30.7045 167.146 31.1392C167.896 31.5653 168.774 31.7784 169.779 31.7784C170.453 31.7784 171.062 31.6847 171.608 31.4972C172.153 31.3011 172.626 31.0156 173.027 30.6406C173.427 30.2656 173.73 29.8011 173.934 29.2472L178.255 29.733C177.983 30.875 177.463 31.8722 176.696 32.7244C175.937 33.5682 174.966 34.2244 173.781 34.6932C172.596 35.1534 171.241 35.3835 169.716 35.3835Z"/>
</svg>
