<svg xmlns="http://www.w3.org/2000/svg" fill="none" viewBox="0 0 20 20">
  <path fill="currentColor" fill-rule="evenodd" d="M17.247 14.893a21.973 21.973 0 0 0-3.838-.888c.185-1.083.283-2.218.314-3.38h5.003a8.678 8.678 0 0 1-1.479 4.268Zm-5.1 3.581a20.341 20.341 0 0 0 1.018-3.237 20.83 20.83 0 0 1 3.222.734 8.764 8.764 0 0 1-4.24 2.503Zm-1.54.245c-.201.015-.402.031-.607.031-.205 0-.405-.016-.607-.03a18.666 18.666 0 0 1-1.281-3.649A21.77 21.77 0 0 1 10 14.985c.637 0 1.267.032 1.889.086-.32 1.308-.75 2.54-1.282 3.648Zm-6.994-2.748a20.791 20.791 0 0 1 3.222-.734 20.334 20.334 0 0 0 1.019 3.237 8.766 8.766 0 0 1-4.24-2.503Zm-.86-1.078a8.678 8.678 0 0 1-1.48-4.268h5.004c.031 1.162.13 2.297.314 3.38-1.355.192-2.642.49-3.839.888Zm0-9.786c1.196.398 2.483.696 3.838.888a24.07 24.07 0 0 0-.314 3.38H1.274a8.677 8.677 0 0 1 1.478-4.268Zm5.1-3.581a20.335 20.335 0 0 0-1.018 3.237 20.725 20.725 0 0 1-3.222-.734 8.766 8.766 0 0 1 4.24-2.503Zm1.54-.245c.202-.014.402-.031.607-.031.205 0 .406.017.607.03a18.764 18.764 0 0 1 1.282 3.649c-.622.054-1.252.086-1.889.086s-1.267-.032-1.888-.086A18.68 18.68 0 0 1 9.393 1.28Zm3.078 9.344a21.916 21.916 0 0 1-.322 3.223A24.77 24.77 0 0 0 10 13.75c-.73 0-1.446.036-2.149.098a21.751 21.751 0 0 1-.322-3.223h4.942ZM7.53 9.375c.034-1.1.133-2.183.322-3.223.703.062 1.419.098 2.149.098s1.446-.036 2.149-.098a21.71 21.71 0 0 1 .322 3.223H7.53Zm8.858-5.346a20.73 20.73 0 0 1-3.222.734 20.342 20.342 0 0 0-1.019-3.237 8.763 8.763 0 0 1 4.24 2.503Zm.86 1.078a8.678 8.678 0 0 1 1.48 4.268h-5.004a24.058 24.058 0 0 0-.314-3.38 21.915 21.915 0 0 0 3.838-.888ZM10 0C4.478 0 0 4.477 0 10s4.478 10 10 10c5.523 0 10-4.477 10-10S15.523 0 10 0Z" clip-rule="evenodd"/>
</svg>
