<svg xmlns="http://www.w3.org/2000/svg" width="26" height="25" fill="none"><path fill="currentColor" d="M7.927.32C6.623.382 5.733.59 4.955.895a6.008 6.008 0 0 0-2.167 1.417 6.005 6.005 0 0 0-1.409 2.17c-.302.78-.506 1.671-.563 2.976-.058 1.304-.07 1.724-.064 5.05.006 3.325.02 3.743.084 5.05.062 1.303.27 2.193.575 2.971a6.009 6.009 0 0 0 1.416 2.168A6 6 0 0 0 5 24.106c.779.3 1.67.506 2.974.563 1.304.057 1.724.07 5.05.064 3.325-.006 3.744-.021 5.05-.083 1.308-.062 2.193-.27 2.971-.575a6.004 6.004 0 0 0 2.168-1.418 5.996 5.996 0 0 0 1.408-2.172c.302-.779.506-1.67.563-2.973.057-1.308.071-1.725.064-5.052-.007-3.327-.02-3.743-.083-5.05-.062-1.306-.27-2.193-.575-2.972a6.019 6.019 0 0 0-1.416-2.167A5.977 5.977 0 0 0 21 .863C20.22.56 19.33.355 18.027.299c-1.304-.056-1.724-.07-5.05-.064-3.327.006-3.744.02-5.05.084m.143 22.145c-1.194-.052-1.843-.25-2.275-.416a3.818 3.818 0 0 1-1.41-.914 3.768 3.768 0 0 1-.92-1.407c-.167-.432-.37-1.08-.425-2.274-.06-1.29-.074-1.678-.08-4.95-.008-3.27.005-3.657.061-4.948.051-1.194.25-1.843.417-2.275a3.8 3.8 0 0 1 .913-1.41c.427-.431.836-.696 1.407-.92.432-.168 1.08-.369 2.274-.425 1.291-.062 1.679-.074 4.949-.08 3.27-.008 3.658.004 4.95.061 1.194.052 1.843.25 2.274.417.573.22.98.485 1.411.913.43.428.696.835.92 1.408.168.43.369 1.078.425 2.272.061 1.292.075 1.68.081 4.95.006 3.27-.005 3.658-.062 4.948-.052 1.195-.25 1.843-.416 2.276-.22.573-.487.98-.915 1.41-.428.431-.835.696-1.407.92-.431.168-1.08.369-2.272.426-1.292.06-1.68.073-4.95.08-3.27.007-3.658-.006-4.95-.062Zm9.986-16.527a1.47 1.47 0 1 0 2.94-.005 1.47 1.47 0 0 0-2.94.005ZM6.71 12.497a6.291 6.291 0 0 0 12.58-.024 6.29 6.29 0 0 0-12.58.023Zm2.208-.005a4.084 4.084 0 1 1 8.167-.02 4.084 4.084 0 0 1-8.167.021"/></svg>
