<svg xmlns="http://www.w3.org/2000/svg" width="24" height="25" fill="none"><path fill="currentColor" d="M21.333.485A2.667 2.667 0 0 1 24 3.152v18.666a2.667 2.667 0 0 1-2.667 2.667H2.667A2.667 2.667 0 0 1 0 21.818V3.152A2.667 2.667 0 0 1 2.667.485h18.666Zm-.666 20.666v-7.066a4.347 4.347 0 0 0-4.347-4.347c-1.133 0-2.453.694-3.093 1.734v-1.48h-3.72v11.16h3.72v-6.574a1.86 1.86 0 0 1 1.853-1.867 1.866 1.866 0 0 1 1.867 1.867v6.573h3.72ZM5.173 7.898a2.24 2.24 0 0 0 2.24-2.24c0-1.24-1-2.253-2.24-2.253A2.253 2.253 0 0 0 2.92 5.658c0 1.24 1.013 2.24 2.253 2.24Zm1.854 13.253V9.991H3.333v11.16h3.694Z"/></svg>
