<svg width="176" height="44" viewBox="0 0 176 44" fill="none" xmlns="http://www.w3.org/2000/svg">
	<path d="M49.1487 20.0341C50.4053 20.0341 51.5849 20.2649 52.6876 20.7265C53.8159 21.1881 54.7904 21.8421 55.6111 22.6883C56.4573 23.509 57.1241 24.5091 57.6113 25.6887C58.0986 26.8427 58.3422 28.1249 58.3422 29.5354C58.3422 29.7149 58.3422 29.9585 58.3422 30.2662C58.3422 30.574 58.3293 30.9073 58.3037 31.2664H44.6866C44.7635 31.6767 44.943 32.0998 45.2251 32.5358C45.5072 32.9717 45.8662 33.3692 46.3022 33.7282C46.7381 34.0872 47.251 34.3822 47.8408 34.613C48.4306 34.8438 49.0846 34.9592 49.8026 34.9592C50.5976 34.9592 51.3028 34.8694 51.9183 34.6899C52.5337 34.4847 53.0594 34.2668 53.4954 34.036C53.9826 33.7539 54.4186 33.4461 54.8033 33.1128L57.1112 36.5747C56.5214 37.062 55.8547 37.4979 55.111 37.8826C54.4699 38.216 53.7005 38.5109 52.803 38.7673C51.9054 39.0494 50.9053 39.1905 49.8026 39.1905C48.4178 39.1905 47.1228 38.9468 45.9175 38.4596C44.7379 37.9467 43.6993 37.2671 42.8017 36.4209C41.9298 35.549 41.2374 34.536 40.7245 33.382C40.2373 32.2024 39.9937 30.9458 39.9937 29.6123C39.9937 28.2788 40.2245 27.0351 40.686 25.8811C41.1476 24.7014 41.7759 23.6885 42.5709 22.8422C43.3915 21.9703 44.366 21.2907 45.4944 20.8035C46.6227 20.2906 47.8408 20.0341 49.1487 20.0341ZM53.7262 27.9198C53.7005 27.5351 53.5851 27.1248 53.38 26.6889C53.2005 26.2529 52.9184 25.8554 52.5337 25.4964C52.1747 25.1117 51.7131 24.804 51.1489 24.5732C50.5848 24.3424 49.918 24.227 49.1487 24.227C48.405 24.227 47.7639 24.3424 47.2254 24.5732C46.6868 24.804 46.2252 25.0989 45.8406 25.4579C45.4815 25.8169 45.1995 26.2144 44.9943 26.6504C44.8148 27.0863 44.7122 27.5095 44.6866 27.9198H53.7262Z" fill="black"/>
	<path d="M62.2736 9.64819H66.8895V22.4191C67.2486 21.9831 67.6717 21.5856 68.1589 21.2266C68.5949 20.9445 69.1334 20.6753 69.7745 20.4188C70.4156 20.1624 71.1722 20.0341 72.0441 20.0341C73.2237 20.0341 74.352 20.2778 75.4291 20.765C76.5062 21.2266 77.4422 21.8805 78.2372 22.7268C79.0578 23.5731 79.7117 24.586 80.199 25.7657C80.6862 26.9197 80.9298 28.2019 80.9298 29.6123C80.9298 31.0227 80.6862 32.3178 80.199 33.4974C79.7117 34.6514 79.0578 35.6515 78.2372 36.4978C77.4422 37.3441 76.5062 38.0108 75.4291 38.4981C74.352 38.9597 73.2237 39.1905 72.0441 39.1905C71.0696 39.1905 70.2233 39.0366 69.5053 38.7289C68.8129 38.4468 68.2487 38.1262 67.8127 37.7672C67.2999 37.3569 66.8767 36.8825 66.5433 36.3439V38.7289H62.2736V9.64819ZM66.8895 32.3434C67.1716 32.8307 67.5178 33.2538 67.9281 33.6128C68.2872 33.9462 68.7359 34.2411 69.2745 34.4976C69.813 34.754 70.4669 34.8822 71.2363 34.8822C72.0056 34.8822 72.698 34.754 73.3135 34.4976C73.9546 34.2155 74.4803 33.8436 74.8906 33.382C75.3265 32.8948 75.6599 32.3306 75.8907 31.6895C76.1215 31.0484 76.2369 30.356 76.2369 29.6123C76.2369 28.8686 76.1215 28.1762 75.8907 27.5351C75.6599 26.894 75.3265 26.3427 74.8906 25.8811C74.4803 25.3938 73.9546 25.022 73.3135 24.7655C72.698 24.4834 72.0056 24.3424 71.2363 24.3424C70.4669 24.3424 69.813 24.4834 69.2745 24.7655C68.7359 25.022 68.2872 25.3041 67.9281 25.6118C67.5178 25.9965 67.1716 26.4196 66.8895 26.8812V32.3434Z" fill="black"/>
	<path d="M92.2357 20.0341C93.4922 20.0341 94.6719 20.2649 95.7746 20.7265C96.9029 21.1881 97.8774 21.8421 98.698 22.6883C99.5443 23.509 100.211 24.5091 100.698 25.6887C101.186 26.8427 101.429 28.1249 101.429 29.5354C101.429 29.7149 101.429 29.9585 101.429 30.2662C101.429 30.574 101.416 30.9073 101.391 31.2664H87.7735C87.8505 31.6767 88.03 32.0998 88.3121 32.5358C88.5942 32.9717 88.9532 33.3692 89.3891 33.7282C89.8251 34.0872 90.338 34.3822 90.9278 34.613C91.5176 34.8438 92.1715 34.9592 92.8896 34.9592C93.6846 34.9592 94.3898 34.8694 95.0053 34.6899C95.6207 34.4847 96.1464 34.2668 96.5824 34.036C97.0696 33.7539 97.5056 33.4461 97.8902 33.1128L100.198 36.5747C99.6084 37.062 98.9417 37.4979 98.198 37.8826C97.5569 38.216 96.7875 38.5109 95.89 38.7673C94.9924 39.0494 93.9923 39.1905 92.8896 39.1905C91.5048 39.1905 90.2098 38.9468 89.0045 38.4596C87.8248 37.9467 86.7862 37.2671 85.8887 36.4209C85.0168 35.549 84.3244 34.536 83.8115 33.382C83.3243 32.2024 83.0806 30.9458 83.0806 29.6123C83.0806 28.2788 83.3114 27.0351 83.773 25.8811C84.2346 24.7014 84.8629 23.6885 85.6579 22.8422C86.4785 21.9703 87.453 21.2907 88.5813 20.8035C89.7097 20.2906 90.9278 20.0341 92.2357 20.0341ZM96.8132 27.9198C96.7875 27.5351 96.6721 27.1248 96.467 26.6889C96.2875 26.2529 96.0054 25.8554 95.6207 25.4964C95.2617 25.1117 94.8001 24.804 94.2359 24.5732C93.6717 24.3424 93.005 24.227 92.2357 24.227C91.492 24.227 90.8509 24.3424 90.3123 24.5732C89.7738 24.804 89.3122 25.0989 88.9275 25.4579C88.5685 25.8169 88.2864 26.2144 88.0813 26.6504C87.9018 27.0863 87.7992 27.5095 87.7735 27.9198H96.8132Z" fill="black"/>
	<path d="M114.593 20.0341C115.464 20.0341 116.298 20.188 117.093 20.4957C117.913 20.8035 118.631 21.2523 119.247 21.8421C119.862 22.4319 120.35 23.1499 120.709 23.9962C121.093 24.8425 121.286 25.8169 121.286 26.9197V38.7289H116.67V28.0736C116.67 26.7658 116.311 25.8169 115.593 25.2271C114.9 24.6373 114.054 24.3424 113.054 24.3424C112.464 24.3424 111.938 24.4706 111.477 24.7271C111.041 24.9835 110.669 25.2528 110.361 25.5349C110.002 25.8682 109.694 26.2529 109.438 26.6889V38.7289H104.822V20.4957H109.13V23.1499C109.464 22.5858 109.887 22.0729 110.4 21.6113C110.836 21.2266 111.4 20.8676 112.092 20.5342C112.785 20.2008 113.618 20.0341 114.593 20.0341Z" fill="black"/>
	<path d="M124.434 20.4957H128.012V15.072H132.628V20.4957H138.128V24.6501H132.628V31.9972C132.628 32.5614 132.692 33.0358 132.82 33.4205C132.948 33.7795 133.128 34.0744 133.358 34.3052C133.589 34.5104 133.846 34.6642 134.128 34.7668C134.41 34.8437 134.705 34.8822 135.013 34.8822C135.269 34.8822 135.513 34.8566 135.743 34.8053C135.974 34.7284 136.179 34.6514 136.359 34.5745C136.564 34.4719 136.756 34.3565 136.936 34.2283L138.628 37.998C138.295 38.2288 137.897 38.434 137.436 38.6135C137.051 38.7673 136.59 38.8956 136.051 38.9981C135.513 39.1264 134.91 39.1905 134.243 39.1905C133.346 39.1905 132.512 39.0366 131.743 38.7289C130.999 38.4211 130.345 37.9852 129.781 37.421C129.243 36.8568 128.807 36.1773 128.473 35.3823C128.165 34.5873 128.012 33.7026 128.012 32.7281V24.6501H124.434V20.4957Z" fill="black"/>
	<path d="M150.4 20.0341C151.759 20.0341 153.028 20.2778 154.208 20.765C155.388 21.2523 156.413 21.9318 157.285 22.8037C158.183 23.6756 158.875 24.7014 159.362 25.8811C159.875 27.0351 160.132 28.2788 160.132 29.6123C160.132 30.9458 159.875 32.2024 159.362 33.382C158.875 34.536 158.183 35.549 157.285 36.4209C156.413 37.2671 155.388 37.9467 154.208 38.4596C153.028 38.9468 151.759 39.1905 150.4 39.1905C149.041 39.1905 147.771 38.9468 146.592 38.4596C145.412 37.9467 144.373 37.2671 143.476 36.4209C142.604 35.549 141.911 34.536 141.399 33.382C140.911 32.2024 140.668 30.9458 140.668 29.6123C140.668 28.2788 140.911 27.0351 141.399 25.8811C141.911 24.7014 142.604 23.6756 143.476 22.8037C144.373 21.9318 145.412 21.2523 146.592 20.765C147.771 20.2778 149.041 20.0341 150.4 20.0341ZM150.4 34.8822C151.169 34.8822 151.861 34.7412 152.477 34.4591C153.118 34.177 153.657 33.8052 154.092 33.3436C154.528 32.8563 154.862 32.2921 155.093 31.651C155.323 31.0099 155.439 30.3303 155.439 29.6123C155.439 28.8943 155.323 28.2275 155.093 27.612C154.862 26.9709 154.528 26.4068 154.092 25.9195C153.657 25.4323 153.118 25.0476 152.477 24.7655C151.861 24.4834 151.169 24.3424 150.4 24.3424C149.63 24.3424 148.925 24.4834 148.284 24.7655C147.669 25.0476 147.143 25.4323 146.707 25.9195C146.271 26.4068 145.938 26.9709 145.707 27.612C145.476 28.2275 145.361 28.8943 145.361 29.6123C145.361 30.3303 145.476 31.0099 145.707 31.651C145.938 32.2921 146.271 32.8563 146.707 33.3436C147.143 33.8052 147.669 34.177 148.284 34.4591C148.925 34.7412 149.63 34.8822 150.4 34.8822Z" fill="black"/>
	<path d="M172.846 20.0341C173.256 20.0341 173.654 20.0726 174.038 20.1495C174.423 20.2008 174.756 20.2649 175.038 20.3419C175.372 20.4445 175.692 20.5342 176 20.6111L174.384 24.7655C174.231 24.7142 174.038 24.6501 173.807 24.5732C173.602 24.5219 173.359 24.4706 173.077 24.4193C172.82 24.368 172.525 24.3424 172.192 24.3424C171.474 24.3424 170.858 24.4706 170.345 24.7271C169.858 24.9835 169.448 25.2656 169.115 25.5733C168.73 25.9323 168.397 26.3427 168.114 26.8043V38.7289H163.498V20.4957H167.884V23.1499C168.217 22.5858 168.615 22.0729 169.076 21.6113C169.486 21.2266 169.999 20.8676 170.615 20.5342C171.256 20.2008 172 20.0341 172.846 20.0341Z" fill="black"/>
	<path d="M8.1561 5.38804L11.3995 19.4108L21.6065 10.0146L29.4764 18.0753L37.6802 0.236816L46.9334 2.28777L26.567 43.6883L20.3187 23.9897L10.8271 39.0618L0 11.684L8.1561 5.38804Z" fill="black"/>
</svg>